ISO-10303-21;
HEADER;
FILE_DESCRIPTION(('STEP AP214'),'1');
FILE_NAME('TFBGA48_ISI','2026-07-26T11:42:22',(''),(''),'','','');
FILE_SCHEMA(('AUTOMOTIVE_DESIGN'));
ENDSEC;
DATA;
#1=SHAPE_DEFINITION_REPRESENTATION(#2,#3);
#2=PRODUCT_DEFINITION_SHAPE('',$,#4);
#3=SHAPE_REPRESENTATION('',(#188,#197,#206,#215,#224,#233,#242,#251,#260,#269,#278,#287,#296,#305,#314,#323,#332,#341,#350,#359,#368,#377,#386,#395,#404,#413,#422,#431,#440,#449,#458,#467,#476,#485,#494,#503,#512,#521,#530,#539,#548,#557,#566,#575,#584,#593,#602,#611,#621,#677,#19),#11);
#4=PRODUCT_DEFINITION('design','example product_definition',#6,#5);
#5=PRODUCT_DEFINITION_CONTEXT('3D Mechanical Parts',#10,'design');
#6=PRODUCT_DEFINITION_FORMATION('1.0','first version',#8);
#7=APPLICATION_PROTOCOL_DEFINITION('international standard','automotive_design',2003,#10);
#8=PRODUCT('product','part','',(#9));
#9=PRODUCT_CONTEXT('3D Mechanical Parts',#10,'mechanical');
#10=APPLICATION_CONTEXT('Core Data for Automotive Mechanical Design Process');
#11=(GEOMETRIC_REPRESENTATION_CONTEXT(3) GLOBAL_UNCERTAINTY_ASSIGNED_CONTEXT((#12)) GLOBAL_UNIT_ASSIGNED_CONTEXT((#13,#14,#18)) REPRESENTATION_CONTEXT('ID1','3D'));
#12=UNCERTAINTY_MEASURE_WITH_UNIT(LENGTH_MEASURE(1.E-005),#13,'DISTANCE_ACCURACY_VALUE','Maximum model space distance between geometric entities at asserted connectivities');
#13=(LENGTH_UNIT() NAMED_UNIT(*) SI_UNIT(.MILLI.,.METRE.));
#14=(CONVERSION_BASED_UNIT('degree',#16) NAMED_UNIT(#15) PLANE_ANGLE_UNIT());
#15=DIMENSIONAL_EXPONENTS(0.,0.,0.,0.,0.,0.,0.);
#16=MEASURE_WITH_UNIT(PLANE_ANGLE_MEASURE(0.01745329252),#17);
#17=(NAMED_UNIT(*) PLANE_ANGLE_UNIT() SI_UNIT($,.RADIAN.));
#18=(NAMED_UNIT(*) SI_UNIT($,.STERADIAN.) SOLID_ANGLE_UNIT());
#19=AXIS2_PLACEMENT_3D('',#20,#21,#22);
#20=CARTESIAN_POINT('',(0.0,0.0,0.0));
#21=DIRECTION('',(0.0,0.0,1.0));
#22=DIRECTION('',(1.0,0.0,0.0));
#25=MECHANICAL_DESIGN_GEOMETRIC_PRESENTATION_REPRESENTATION($,(#190,#199,#208,#217,#226,#235,#244,#253,#262,#271,#280,#289,#298,#307,#316,#325,#334,#343,#352,#361,#370,#379,#388,#397,#406,#415,#424,#433,#442,#451,#460,#469,#478,#487,#496,#505,#514,#523,#532,#541,#550,#559,#568,#577,#586,#595,#604,#613,#673,#674,#675,#679,#728,#777,#826,#875,#924),#11);
#26=PRODUCT_CATEGORY_RELATIONSHIP('','',#27,#28);
#27=PRODUCT_CATEGORY('part','');
#28=PRODUCT_RELATED_PRODUCT_CATEGORY('','',(#8));
#34=PRESENTATION_STYLE_ASSIGNMENT((#35,#40));
#35=SURFACE_STYLE_USAGE(.BOTH.,#36);
#36=SURFACE_SIDE_STYLE('',(#37));
#37=SURFACE_STYLE_FILL_AREA(#38);
#38=FILL_AREA_STYLE('',(#39));
#39=FILL_AREA_STYLE_COLOUR('',#41);
#40=CURVE_STYLE('',#42,POSITIVE_LENGTH_MEASURE(0.1),#41);
#41=COLOUR_RGB('Aluminum',0.725,0.725,0.725);
#42=DRAUGHTING_PRE_DEFINED_CURVE_FONT('continuous');
#43=PRESENTATION_STYLE_ASSIGNMENT((#44,#49));
#44=SURFACE_STYLE_USAGE(.BOTH.,#45);
#45=SURFACE_SIDE_STYLE('',(#46));
#46=SURFACE_STYLE_FILL_AREA(#47);
#47=FILL_AREA_STYLE('',(#48));
#48=FILL_AREA_STYLE_COLOUR('',#50);
#49=CURVE_STYLE('',#51,POSITIVE_LENGTH_MEASURE(0.1),#50);
#50=COLOUR_RGB('Black',0.196,0.196,0.196);
#51=DRAUGHTING_PRE_DEFINED_CURVE_FONT('continuous');
#52=PRESENTATION_STYLE_ASSIGNMENT((#53,#58));
#53=SURFACE_STYLE_USAGE(.BOTH.,#54);
#54=SURFACE_SIDE_STYLE('',(#55));
#55=SURFACE_STYLE_FILL_AREA(#56);
#56=FILL_AREA_STYLE('',(#57));
#57=FILL_AREA_STYLE_COLOUR('',#59);
#58=CURVE_STYLE('',#60,POSITIVE_LENGTH_MEASURE(0.1),#59);
#59=COLOUR_RGB('Pin1',0.588,0.588,0.588);
#60=DRAUGHTING_PRE_DEFINED_CURVE_FONT('continuous');
#61=PRESENTATION_STYLE_ASSIGNMENT((#62,#67));
#62=SURFACE_STYLE_USAGE(.BOTH.,#63);
#63=SURFACE_SIDE_STYLE('',(#64));
#64=SURFACE_STYLE_FILL_AREA(#65);
#65=FILL_AREA_STYLE('',(#66));
#66=FILL_AREA_STYLE_COLOUR('',#68);
#67=CURVE_STYLE('',#69,POSITIVE_LENGTH_MEASURE(0.1),#68);
#68=COLOUR_RGB('HeatTab',0.588,0.588,0.588);
#69=DRAUGHTING_PRE_DEFINED_CURVE_FONT('continuous');
#70=PRESENTATION_STYLE_ASSIGNMENT((#71,#76));
#71=SURFACE_STYLE_USAGE(.BOTH.,#72);
#72=SURFACE_SIDE_STYLE('',(#73));
#73=SURFACE_STYLE_FILL_AREA(#74);
#74=FILL_AREA_STYLE('',(#75));
#75=FILL_AREA_STYLE_COLOUR('',#77);
#76=CURVE_STYLE('',#78,POSITIVE_LENGTH_MEASURE(0.1),#77);
#77=COLOUR_RGB('Gold',0.843,0.686,0.0);
#78=DRAUGHTING_PRE_DEFINED_CURVE_FONT('continuous');
#79=PRESENTATION_STYLE_ASSIGNMENT((#80,#85));
#80=SURFACE_STYLE_USAGE(.BOTH.,#81);
#81=SURFACE_SIDE_STYLE('',(#82));
#82=SURFACE_STYLE_FILL_AREA(#83);
#83=FILL_AREA_STYLE('',(#84));
#84=FILL_AREA_STYLE_COLOUR('',#86);
#85=CURVE_STYLE('',#87,POSITIVE_LENGTH_MEASURE(0.1),#86);
#86=COLOUR_RGB('Brown',0.459,0.345,0.176);
#87=DRAUGHTING_PRE_DEFINED_CURVE_FONT('continuous');
#88=PRESENTATION_STYLE_ASSIGNMENT((#89,#94));
#89=SURFACE_STYLE_USAGE(.BOTH.,#90);
#90=SURFACE_SIDE_STYLE('',(#91));
#91=SURFACE_STYLE_FILL_AREA(#92);
#92=FILL_AREA_STYLE('',(#93));
#93=FILL_AREA_STYLE_COLOUR('',#95);
#94=CURVE_STYLE('',#96,POSITIVE_LENGTH_MEASURE(0.1),#95);
#95=COLOUR_RGB('Tan',0.784,0.686,0.51);
#96=DRAUGHTING_PRE_DEFINED_CURVE_FONT('continuous');
#97=PRESENTATION_STYLE_ASSIGNMENT((#98,#103));
#98=SURFACE_STYLE_USAGE(.BOTH.,#99);
#99=SURFACE_SIDE_STYLE('',(#100));
#100=SURFACE_STYLE_FILL_AREA(#101);
#101=FILL_AREA_STYLE('',(#102));
#102=FILL_AREA_STYLE_COLOUR('',#104);
#103=CURVE_STYLE('',#105,POSITIVE_LENGTH_MEASURE(0.1),#104);
#104=COLOUR_RGB('Gray',0.431,0.431,0.431);
#105=DRAUGHTING_PRE_DEFINED_CURVE_FONT('continuous');
#106=PRESENTATION_STYLE_ASSIGNMENT((#107,#112));
#107=SURFACE_STYLE_USAGE(.BOTH.,#108);
#108=SURFACE_SIDE_STYLE('',(#109));
#109=SURFACE_STYLE_FILL_AREA(#110);
#110=FILL_AREA_STYLE('',(#111));
#111=FILL_AREA_STYLE_COLOUR('',#113);
#112=CURVE_STYLE('',#114,POSITIVE_LENGTH_MEASURE(0.1),#113);
#113=COLOUR_RGB('Red',0.6,0.0,0.0);
#114=DRAUGHTING_PRE_DEFINED_CURVE_FONT('continuous');
#115=PRESENTATION_STYLE_ASSIGNMENT((#116,#121));
#116=SURFACE_STYLE_USAGE(.BOTH.,#117);
#117=SURFACE_SIDE_STYLE('',(#118));
#118=SURFACE_STYLE_FILL_AREA(#119);
#119=FILL_AREA_STYLE('',(#120));
#120=FILL_AREA_STYLE_COLOUR('',#122);
#121=CURVE_STYLE('',#123,POSITIVE_LENGTH_MEASURE(0.1),#122);
#122=COLOUR_RGB('Blue',0.157,0.157,0.588);
#123=DRAUGHTING_PRE_DEFINED_CURVE_FONT('continuous');
#124=PRESENTATION_STYLE_ASSIGNMENT((#125,#130));
#125=SURFACE_STYLE_USAGE(.BOTH.,#126);
#126=SURFACE_SIDE_STYLE('',(#127));
#127=SURFACE_STYLE_FILL_AREA(#128);
#128=FILL_AREA_STYLE('',(#129));
#129=FILL_AREA_STYLE_COLOUR('',#131);
#130=CURVE_STYLE('',#132,POSITIVE_LENGTH_MEASURE(0.1),#131);
#131=COLOUR_RGB('Maroon',0.294,0.0,0.0);
#132=DRAUGHTING_PRE_DEFINED_CURVE_FONT('continuous');
#133=PRESENTATION_STYLE_ASSIGNMENT((#134,#139));
#134=SURFACE_STYLE_USAGE(.BOTH.,#135);
#135=SURFACE_SIDE_STYLE('',(#136));
#136=SURFACE_STYLE_FILL_AREA(#137);
#137=FILL_AREA_STYLE('',(#138));
#138=FILL_AREA_STYLE_COLOUR('',#140);
#139=CURVE_STYLE('',#141,POSITIVE_LENGTH_MEASURE(0.1),#140);
#140=COLOUR_RGB('Green',0.0,0.294,0.0);
#141=DRAUGHTING_PRE_DEFINED_CURVE_FONT('continuous');
#142=PRESENTATION_STYLE_ASSIGNMENT((#143,#148));
#143=SURFACE_STYLE_USAGE(.BOTH.,#144);
#144=SURFACE_SIDE_STYLE('',(#145));
#145=SURFACE_STYLE_FILL_AREA(#146);
#146=FILL_AREA_STYLE('',(#147));
#147=FILL_AREA_STYLE_COLOUR('',#149);
#148=CURVE_STYLE('',#150,POSITIVE_LENGTH_MEASURE(0.1),#149);
#149=COLOUR_RGB('Pin1Wrap',0.98,0.706,0.176);
#150=DRAUGHTING_PRE_DEFINED_CURVE_FONT('continuous');
#151=PRESENTATION_STYLE_ASSIGNMENT((#152,#157));
#152=SURFACE_STYLE_USAGE(.BOTH.,#153);
#153=SURFACE_SIDE_STYLE('',(#154));
#154=SURFACE_STYLE_FILL_AREA(#155);
#155=FILL_AREA_STYLE('',(#156));
#156=FILL_AREA_STYLE_COLOUR('',#158);
#157=CURVE_STYLE('',#159,POSITIVE_LENGTH_MEASURE(0.1),#158);
#158=COLOUR_RGB('Pin1Rad',0.588,0.588,0.588);
#159=DRAUGHTING_PRE_DEFINED_CURVE_FONT('continuous');
#160=PRESENTATION_STYLE_ASSIGNMENT((#161,#166));
#161=SURFACE_STYLE_USAGE(.BOTH.,#162);
#162=SURFACE_SIDE_STYLE('',(#163));
#163=SURFACE_STYLE_FILL_AREA(#164);
#164=FILL_AREA_STYLE('',(#165));
#165=FILL_AREA_STYLE_COLOUR('',#167);
#166=CURVE_STYLE('',#168,POSITIVE_LENGTH_MEASURE(0.1),#167);
#167=COLOUR_RGB('Pin1Axial',0.98,0.706,0.176);
#168=DRAUGHTING_PRE_DEFINED_CURVE_FONT('continuous');
#169=PRESENTATION_STYLE_ASSIGNMENT((#170,#175));
#170=SURFACE_STYLE_USAGE(.BOTH.,#171);
#171=SURFACE_SIDE_STYLE('',(#172));
#172=SURFACE_STYLE_FILL_AREA(#173);
#173=FILL_AREA_STYLE('',(#174));
#174=FILL_AREA_STYLE_COLOUR('',#176);
#175=CURVE_STYLE('',#177,POSITIVE_LENGTH_MEASURE(0.1),#176);
#176=COLOUR_RGB('Pin1Tant',0.459,0.345,0.176);
#177=DRAUGHTING_PRE_DEFINED_CURVE_FONT('continuous');
#178=PRESENTATION_STYLE_ASSIGNMENT((#179,#184));
#179=SURFACE_STYLE_USAGE(.BOTH.,#180);
#180=SURFACE_SIDE_STYLE('',(#181));
#181=SURFACE_STYLE_FILL_AREA(#182);
#182=FILL_AREA_STYLE('',(#183));
#183=FILL_AREA_STYLE_COLOUR('',#185);
#184=CURVE_STYLE('',#186,POSITIVE_LENGTH_MEASURE(0.1),#185);
#185=COLOUR_RGB('Shroud',0.235,0.235,0.235);
#186=DRAUGHTING_PRE_DEFINED_CURVE_FONT('continuous');
#188=MANIFOLD_SOLID_BREP($,#189);
#189=CLOSED_SHELL('',(#191));
#190=STYLED_ITEM('color',(#34),#191);
#191=ADVANCED_FACE('',(),#192,.T.);
#192=SPHERICAL_SURFACE('',#193,0.2032);
#193=AXIS2_PLACEMENT_3D('',#194,#195,#196);
#194=CARTESIAN_POINT('',(-1.875,2.625,0.203));
#195=DIRECTION('',(0.,0.,-1.));
#196=DIRECTION('',(-1.,0.,0.));
#197=MANIFOLD_SOLID_BREP($,#198);
#198=CLOSED_SHELL('',(#200));
#199=STYLED_ITEM('color',(#34),#200);
#200=ADVANCED_FACE('',(),#201,.T.);
#201=SPHERICAL_SURFACE('',#202,0.2032);
#202=AXIS2_PLACEMENT_3D('',#203,#204,#205);
#203=CARTESIAN_POINT('',(-1.125,2.625,0.203));
#204=DIRECTION('',(0.,0.,-1.));
#205=DIRECTION('',(-1.,0.,0.));
#206=MANIFOLD_SOLID_BREP($,#207);
#207=CLOSED_SHELL('',(#209));
#208=STYLED_ITEM('color',(#34),#209);
#209=ADVANCED_FACE('',(),#210,.T.);
#210=SPHERICAL_SURFACE('',#211,0.2032);
#211=AXIS2_PLACEMENT_3D('',#212,#213,#214);
#212=CARTESIAN_POINT('',(-0.375,2.625,0.203));
#213=DIRECTION('',(0.,0.,-1.));
#214=DIRECTION('',(-1.,0.,0.));
#215=MANIFOLD_SOLID_BREP($,#216);
#216=CLOSED_SHELL('',(#218));
#217=STYLED_ITEM('color',(#34),#218);
#218=ADVANCED_FACE('',(),#219,.T.);
#219=SPHERICAL_SURFACE('',#220,0.2032);
#220=AXIS2_PLACEMENT_3D('',#221,#222,#223);
#221=CARTESIAN_POINT('',(0.375,2.625,0.203));
#222=DIRECTION('',(0.,0.,-1.));
#223=DIRECTION('',(-1.,0.,0.));
#224=MANIFOLD_SOLID_BREP($,#225);
#225=CLOSED_SHELL('',(#227));
#226=STYLED_ITEM('color',(#34),#227);
#227=ADVANCED_FACE('',(),#228,.T.);
#228=SPHERICAL_SURFACE('',#229,0.2032);
#229=AXIS2_PLACEMENT_3D('',#230,#231,#232);
#230=CARTESIAN_POINT('',(1.125,2.625,0.203));
#231=DIRECTION('',(0.,0.,-1.));
#232=DIRECTION('',(-1.,0.,0.));
#233=MANIFOLD_SOLID_BREP($,#234);
#234=CLOSED_SHELL('',(#236));
#235=STYLED_ITEM('color',(#34),#236);
#236=ADVANCED_FACE('',(),#237,.T.);
#237=SPHERICAL_SURFACE('',#238,0.2032);
#238=AXIS2_PLACEMENT_3D('',#239,#240,#241);
#239=CARTESIAN_POINT('',(1.875,2.625,0.203));
#240=DIRECTION('',(0.,0.,-1.));
#241=DIRECTION('',(-1.,0.,0.));
#242=MANIFOLD_SOLID_BREP($,#243);
#243=CLOSED_SHELL('',(#245));
#244=STYLED_ITEM('color',(#34),#245);
#245=ADVANCED_FACE('',(),#246,.T.);
#246=SPHERICAL_SURFACE('',#247,0.2032);
#247=AXIS2_PLACEMENT_3D('',#248,#249,#250);
#248=CARTESIAN_POINT('',(-1.875,1.875,0.203));
#249=DIRECTION('',(0.,0.,-1.));
#250=DIRECTION('',(-1.,0.,0.));
#251=MANIFOLD_SOLID_BREP($,#252);
#252=CLOSED_SHELL('',(#254));
#253=STYLED_ITEM('color',(#34),#254);
#254=ADVANCED_FACE('',(),#255,.T.);
#255=SPHERICAL_SURFACE('',#256,0.2032);
#256=AXIS2_PLACEMENT_3D('',#257,#258,#259);
#257=CARTESIAN_POINT('',(-1.125,1.875,0.203));
#258=DIRECTION('',(0.,0.,-1.));
#259=DIRECTION('',(-1.,0.,0.));
#260=MANIFOLD_SOLID_BREP($,#261);
#261=CLOSED_SHELL('',(#263));
#262=STYLED_ITEM('color',(#34),#263);
#263=ADVANCED_FACE('',(),#264,.T.);
#264=SPHERICAL_SURFACE('',#265,0.2032);
#265=AXIS2_PLACEMENT_3D('',#266,#267,#268);
#266=CARTESIAN_POINT('',(-0.375,1.875,0.203));
#267=DIRECTION('',(0.,0.,-1.));
#268=DIRECTION('',(-1.,0.,0.));
#269=MANIFOLD_SOLID_BREP($,#270);
#270=CLOSED_SHELL('',(#272));
#271=STYLED_ITEM('color',(#34),#272);
#272=ADVANCED_FACE('',(),#273,.T.);
#273=SPHERICAL_SURFACE('',#274,0.2032);
#274=AXIS2_PLACEMENT_3D('',#275,#276,#277);
#275=CARTESIAN_POINT('',(0.375,1.875,0.203));
#276=DIRECTION('',(0.,0.,-1.));
#277=DIRECTION('',(-1.,0.,0.));
#278=MANIFOLD_SOLID_BREP($,#279);
#279=CLOSED_SHELL('',(#281));
#280=STYLED_ITEM('color',(#34),#281);
#281=ADVANCED_FACE('',(),#282,.T.);
#282=SPHERICAL_SURFACE('',#283,0.2032);
#283=AXIS2_PLACEMENT_3D('',#284,#285,#286);
#284=CARTESIAN_POINT('',(1.125,1.875,0.203));
#285=DIRECTION('',(0.,0.,-1.));
#286=DIRECTION('',(-1.,0.,0.));
#287=MANIFOLD_SOLID_BREP($,#288);
#288=CLOSED_SHELL('',(#290));
#289=STYLED_ITEM('color',(#34),#290);
#290=ADVANCED_FACE('',(),#291,.T.);
#291=SPHERICAL_SURFACE('',#292,0.2032);
#292=AXIS2_PLACEMENT_3D('',#293,#294,#295);
#293=CARTESIAN_POINT('',(1.875,1.875,0.203));
#294=DIRECTION('',(0.,0.,-1.));
#295=DIRECTION('',(-1.,0.,0.));
#296=MANIFOLD_SOLID_BREP($,#297);
#297=CLOSED_SHELL('',(#299));
#298=STYLED_ITEM('color',(#34),#299);
#299=ADVANCED_FACE('',(),#300,.T.);
#300=SPHERICAL_SURFACE('',#301,0.2032);
#301=AXIS2_PLACEMENT_3D('',#302,#303,#304);
#302=CARTESIAN_POINT('',(-1.875,1.125,0.203));
#303=DIRECTION('',(0.,0.,-1.));
#304=DIRECTION('',(-1.,0.,0.));
#305=MANIFOLD_SOLID_BREP($,#306);
#306=CLOSED_SHELL('',(#308));
#307=STYLED_ITEM('color',(#34),#308);
#308=ADVANCED_FACE('',(),#309,.T.);
#309=SPHERICAL_SURFACE('',#310,0.2032);
#310=AXIS2_PLACEMENT_3D('',#311,#312,#313);
#311=CARTESIAN_POINT('',(-1.125,1.125,0.203));
#312=DIRECTION('',(0.,0.,-1.));
#313=DIRECTION('',(-1.,0.,0.));
#314=MANIFOLD_SOLID_BREP($,#315);
#315=CLOSED_SHELL('',(#317));
#316=STYLED_ITEM('color',(#34),#317);
#317=ADVANCED_FACE('',(),#318,.T.);
#318=SPHERICAL_SURFACE('',#319,0.2032);
#319=AXIS2_PLACEMENT_3D('',#320,#321,#322);
#320=CARTESIAN_POINT('',(-0.375,1.125,0.203));
#321=DIRECTION('',(0.,0.,-1.));
#322=DIRECTION('',(-1.,0.,0.));
#323=MANIFOLD_SOLID_BREP($,#324);
#324=CLOSED_SHELL('',(#326));
#325=STYLED_ITEM('color',(#34),#326);
#326=ADVANCED_FACE('',(),#327,.T.);
#327=SPHERICAL_SURFACE('',#328,0.2032);
#328=AXIS2_PLACEMENT_3D('',#329,#330,#331);
#329=CARTESIAN_POINT('',(0.375,1.125,0.203));
#330=DIRECTION('',(0.,0.,-1.));
#331=DIRECTION('',(-1.,0.,0.));
#332=MANIFOLD_SOLID_BREP($,#333);
#333=CLOSED_SHELL('',(#335));
#334=STYLED_ITEM('color',(#34),#335);
#335=ADVANCED_FACE('',(),#336,.T.);
#336=SPHERICAL_SURFACE('',#337,0.2032);
#337=AXIS2_PLACEMENT_3D('',#338,#339,#340);
#338=CARTESIAN_POINT('',(1.125,1.125,0.203));
#339=DIRECTION('',(0.,0.,-1.));
#340=DIRECTION('',(-1.,0.,0.));
#341=MANIFOLD_SOLID_BREP($,#342);
#342=CLOSED_SHELL('',(#344));
#343=STYLED_ITEM('color',(#34),#344);
#344=ADVANCED_FACE('',(),#345,.T.);
#345=SPHERICAL_SURFACE('',#346,0.2032);
#346=AXIS2_PLACEMENT_3D('',#347,#348,#349);
#347=CARTESIAN_POINT('',(1.875,1.125,0.203));
#348=DIRECTION('',(0.,0.,-1.));
#349=DIRECTION('',(-1.,0.,0.));
#350=MANIFOLD_SOLID_BREP($,#351);
#351=CLOSED_SHELL('',(#353));
#352=STYLED_ITEM('color',(#34),#353);
#353=ADVANCED_FACE('',(),#354,.T.);
#354=SPHERICAL_SURFACE('',#355,0.2032);
#355=AXIS2_PLACEMENT_3D('',#356,#357,#358);
#356=CARTESIAN_POINT('',(-1.875,0.375,0.203));
#357=DIRECTION('',(0.,0.,-1.));
#358=DIRECTION('',(-1.,0.,0.));
#359=MANIFOLD_SOLID_BREP($,#360);
#360=CLOSED_SHELL('',(#362));
#361=STYLED_ITEM('color',(#34),#362);
#362=ADVANCED_FACE('',(),#363,.T.);
#363=SPHERICAL_SURFACE('',#364,0.2032);
#364=AXIS2_PLACEMENT_3D('',#365,#366,#367);
#365=CARTESIAN_POINT('',(-1.125,0.375,0.203));
#366=DIRECTION('',(0.,0.,-1.));
#367=DIRECTION('',(-1.,0.,0.));
#368=MANIFOLD_SOLID_BREP($,#369);
#369=CLOSED_SHELL('',(#371));
#370=STYLED_ITEM('color',(#34),#371);
#371=ADVANCED_FACE('',(),#372,.T.);
#372=SPHERICAL_SURFACE('',#373,0.2032);
#373=AXIS2_PLACEMENT_3D('',#374,#375,#376);
#374=CARTESIAN_POINT('',(-0.375,0.375,0.203));
#375=DIRECTION('',(0.,0.,-1.));
#376=DIRECTION('',(-1.,0.,0.));
#377=MANIFOLD_SOLID_BREP($,#378);
#378=CLOSED_SHELL('',(#380));
#379=STYLED_ITEM('color',(#34),#380);
#380=ADVANCED_FACE('',(),#381,.T.);
#381=SPHERICAL_SURFACE('',#382,0.2032);
#382=AXIS2_PLACEMENT_3D('',#383,#384,#385);
#383=CARTESIAN_POINT('',(0.375,0.375,0.203));
#384=DIRECTION('',(0.,0.,-1.));
#385=DIRECTION('',(-1.,0.,0.));
#386=MANIFOLD_SOLID_BREP($,#387);
#387=CLOSED_SHELL('',(#389));
#388=STYLED_ITEM('color',(#34),#389);
#389=ADVANCED_FACE('',(),#390,.T.);
#390=SPHERICAL_SURFACE('',#391,0.2032);
#391=AXIS2_PLACEMENT_3D('',#392,#393,#394);
#392=CARTESIAN_POINT('',(1.125,0.375,0.203));
#393=DIRECTION('',(0.,0.,-1.));
#394=DIRECTION('',(-1.,0.,0.));
#395=MANIFOLD_SOLID_BREP($,#396);
#396=CLOSED_SHELL('',(#398));
#397=STYLED_ITEM('color',(#34),#398);
#398=ADVANCED_FACE('',(),#399,.T.);
#399=SPHERICAL_SURFACE('',#400,0.2032);
#400=AXIS2_PLACEMENT_3D('',#401,#402,#403);
#401=CARTESIAN_POINT('',(1.875,0.375,0.203));
#402=DIRECTION('',(0.,0.,-1.));
#403=DIRECTION('',(-1.,0.,0.));
#404=MANIFOLD_SOLID_BREP($,#405);
#405=CLOSED_SHELL('',(#407));
#406=STYLED_ITEM('color',(#34),#407);
#407=ADVANCED_FACE('',(),#408,.T.);
#408=SPHERICAL_SURFACE('',#409,0.2032);
#409=AXIS2_PLACEMENT_3D('',#410,#411,#412);
#410=CARTESIAN_POINT('',(-1.875,-0.375,0.203));
#411=DIRECTION('',(0.,0.,-1.));
#412=DIRECTION('',(-1.,0.,0.));
#413=MANIFOLD_SOLID_BREP($,#414);
#414=CLOSED_SHELL('',(#416));
#415=STYLED_ITEM('color',(#34),#416);
#416=ADVANCED_FACE('',(),#417,.T.);
#417=SPHERICAL_SURFACE('',#418,0.2032);
#418=AXIS2_PLACEMENT_3D('',#419,#420,#421);
#419=CARTESIAN_POINT('',(-1.125,-0.375,0.203));
#420=DIRECTION('',(0.,0.,-1.));
#421=DIRECTION('',(-1.,0.,0.));
#422=MANIFOLD_SOLID_BREP($,#423);
#423=CLOSED_SHELL('',(#425));
#424=STYLED_ITEM('color',(#34),#425);
#425=ADVANCED_FACE('',(),#426,.T.);
#426=SPHERICAL_SURFACE('',#427,0.2032);
#427=AXIS2_PLACEMENT_3D('',#428,#429,#430);
#428=CARTESIAN_POINT('',(-0.375,-0.375,0.203));
#429=DIRECTION('',(0.,0.,-1.));
#430=DIRECTION('',(-1.,0.,0.));
#431=MANIFOLD_SOLID_BREP($,#432);
#432=CLOSED_SHELL('',(#434));
#433=STYLED_ITEM('color',(#34),#434);
#434=ADVANCED_FACE('',(),#435,.T.);
#435=SPHERICAL_SURFACE('',#436,0.2032);
#436=AXIS2_PLACEMENT_3D('',#437,#438,#439);
#437=CARTESIAN_POINT('',(0.375,-0.375,0.203));
#438=DIRECTION('',(0.,0.,-1.));
#439=DIRECTION('',(-1.,0.,0.));
#440=MANIFOLD_SOLID_BREP($,#441);
#441=CLOSED_SHELL('',(#443));
#442=STYLED_ITEM('color',(#34),#443);
#443=ADVANCED_FACE('',(),#444,.T.);
#444=SPHERICAL_SURFACE('',#445,0.2032);
#445=AXIS2_PLACEMENT_3D('',#446,#447,#448);
#446=CARTESIAN_POINT('',(1.125,-0.375,0.203));
#447=DIRECTION('',(0.,0.,-1.));
#448=DIRECTION('',(-1.,0.,0.));
#449=MANIFOLD_SOLID_BREP($,#450);
#450=CLOSED_SHELL('',(#452));
#451=STYLED_ITEM('color',(#34),#452);
#452=ADVANCED_FACE('',(),#453,.T.);
#453=SPHERICAL_SURFACE('',#454,0.2032);
#454=AXIS2_PLACEMENT_3D('',#455,#456,#457);
#455=CARTESIAN_POINT('',(1.875,-0.375,0.203));
#456=DIRECTION('',(0.,0.,-1.));
#457=DIRECTION('',(-1.,0.,0.));
#458=MANIFOLD_SOLID_BREP($,#459);
#459=CLOSED_SHELL('',(#461));
#460=STYLED_ITEM('color',(#34),#461);
#461=ADVANCED_FACE('',(),#462,.T.);
#462=SPHERICAL_SURFACE('',#463,0.2032);
#463=AXIS2_PLACEMENT_3D('',#464,#465,#466);
#464=CARTESIAN_POINT('',(-1.875,-1.125,0.203));
#465=DIRECTION('',(0.,0.,-1.));
#466=DIRECTION('',(-1.,0.,0.));
#467=MANIFOLD_SOLID_BREP($,#468);
#468=CLOSED_SHELL('',(#470));
#469=STYLED_ITEM('color',(#34),#470);
#470=ADVANCED_FACE('',(),#471,.T.);
#471=SPHERICAL_SURFACE('',#472,0.2032);
#472=AXIS2_PLACEMENT_3D('',#473,#474,#475);
#473=CARTESIAN_POINT('',(-1.125,-1.125,0.203));
#474=DIRECTION('',(0.,0.,-1.));
#475=DIRECTION('',(-1.,0.,0.));
#476=MANIFOLD_SOLID_BREP($,#477);
#477=CLOSED_SHELL('',(#479));
#478=STYLED_ITEM('color',(#34),#479);
#479=ADVANCED_FACE('',(),#480,.T.);
#480=SPHERICAL_SURFACE('',#481,0.2032);
#481=AXIS2_PLACEMENT_3D('',#482,#483,#484);
#482=CARTESIAN_POINT('',(-0.375,-1.125,0.203));
#483=DIRECTION('',(0.,0.,-1.));
#484=DIRECTION('',(-1.,0.,0.));
#485=MANIFOLD_SOLID_BREP($,#486);
#486=CLOSED_SHELL('',(#488));
#487=STYLED_ITEM('color',(#34),#488);
#488=ADVANCED_FACE('',(),#489,.T.);
#489=SPHERICAL_SURFACE('',#490,0.2032);
#490=AXIS2_PLACEMENT_3D('',#491,#492,#493);
#491=CARTESIAN_POINT('',(0.375,-1.125,0.203));
#492=DIRECTION('',(0.,0.,-1.));
#493=DIRECTION('',(-1.,0.,0.));
#494=MANIFOLD_SOLID_BREP($,#495);
#495=CLOSED_SHELL('',(#497));
#496=STYLED_ITEM('color',(#34),#497);
#497=ADVANCED_FACE('',(),#498,.T.);
#498=SPHERICAL_SURFACE('',#499,0.2032);
#499=AXIS2_PLACEMENT_3D('',#500,#501,#502);
#500=CARTESIAN_POINT('',(1.125,-1.125,0.203));
#501=DIRECTION('',(0.,0.,-1.));
#502=DIRECTION('',(-1.,0.,0.));
#503=MANIFOLD_SOLID_BREP($,#504);
#504=CLOSED_SHELL('',(#506));
#505=STYLED_ITEM('color',(#34),#506);
#506=ADVANCED_FACE('',(),#507,.T.);
#507=SPHERICAL_SURFACE('',#508,0.2032);
#508=AXIS2_PLACEMENT_3D('',#509,#510,#511);
#509=CARTESIAN_POINT('',(1.875,-1.125,0.203));
#510=DIRECTION('',(0.,0.,-1.));
#511=DIRECTION('',(-1.,0.,0.));
#512=MANIFOLD_SOLID_BREP($,#513);
#513=CLOSED_SHELL('',(#515));
#514=STYLED_ITEM('color',(#34),#515);
#515=ADVANCED_FACE('',(),#516,.T.);
#516=SPHERICAL_SURFACE('',#517,0.2032);
#517=AXIS2_PLACEMENT_3D('',#518,#519,#520);
#518=CARTESIAN_POINT('',(-1.875,-1.875,0.203));
#519=DIRECTION('',(0.,0.,-1.));
#520=DIRECTION('',(-1.,0.,0.));
#521=MANIFOLD_SOLID_BREP($,#522);
#522=CLOSED_SHELL('',(#524));
#523=STYLED_ITEM('color',(#34),#524);
#524=ADVANCED_FACE('',(),#525,.T.);
#525=SPHERICAL_SURFACE('',#526,0.2032);
#526=AXIS2_PLACEMENT_3D('',#527,#528,#529);
#527=CARTESIAN_POINT('',(-1.125,-1.875,0.203));
#528=DIRECTION('',(0.,0.,-1.));
#529=DIRECTION('',(-1.,0.,0.));
#530=MANIFOLD_SOLID_BREP($,#531);
#531=CLOSED_SHELL('',(#533));
#532=STYLED_ITEM('color',(#34),#533);
#533=ADVANCED_FACE('',(),#534,.T.);
#534=SPHERICAL_SURFACE('',#535,0.2032);
#535=AXIS2_PLACEMENT_3D('',#536,#537,#538);
#536=CARTESIAN_POINT('',(-0.375,-1.875,0.203));
#537=DIRECTION('',(0.,0.,-1.));
#538=DIRECTION('',(-1.,0.,0.));
#539=MANIFOLD_SOLID_BREP($,#540);
#540=CLOSED_SHELL('',(#542));
#541=STYLED_ITEM('color',(#34),#542);
#542=ADVANCED_FACE('',(),#543,.T.);
#543=SPHERICAL_SURFACE('',#544,0.2032);
#544=AXIS2_PLACEMENT_3D('',#545,#546,#547);
#545=CARTESIAN_POINT('',(0.375,-1.875,0.203));
#546=DIRECTION('',(0.,0.,-1.));
#547=DIRECTION('',(-1.,0.,0.));
#548=MANIFOLD_SOLID_BREP($,#549);
#549=CLOSED_SHELL('',(#551));
#550=STYLED_ITEM('color',(#34),#551);
#551=ADVANCED_FACE('',(),#552,.T.);
#552=SPHERICAL_SURFACE('',#553,0.2032);
#553=AXIS2_PLACEMENT_3D('',#554,#555,#556);
#554=CARTESIAN_POINT('',(1.125,-1.875,0.203));
#555=DIRECTION('',(0.,0.,-1.));
#556=DIRECTION('',(-1.,0.,0.));
#557=MANIFOLD_SOLID_BREP($,#558);
#558=CLOSED_SHELL('',(#560));
#559=STYLED_ITEM('color',(#34),#560);
#560=ADVANCED_FACE('',(),#561,.T.);
#561=SPHERICAL_SURFACE('',#562,0.2032);
#562=AXIS2_PLACEMENT_3D('',#563,#564,#565);
#563=CARTESIAN_POINT('',(1.875,-1.875,0.203));
#564=DIRECTION('',(0.,0.,-1.));
#565=DIRECTION('',(-1.,0.,0.));
#566=MANIFOLD_SOLID_BREP($,#567);
#567=CLOSED_SHELL('',(#569));
#568=STYLED_ITEM('color',(#34),#569);
#569=ADVANCED_FACE('',(),#570,.T.);
#570=SPHERICAL_SURFACE('',#571,0.2032);
#571=AXIS2_PLACEMENT_3D('',#572,#573,#574);
#572=CARTESIAN_POINT('',(-1.875,-2.625,0.203));
#573=DIRECTION('',(0.,0.,-1.));
#574=DIRECTION('',(-1.,0.,0.));
#575=MANIFOLD_SOLID_BREP($,#576);
#576=CLOSED_SHELL('',(#578));
#577=STYLED_ITEM('color',(#34),#578);
#578=ADVANCED_FACE('',(),#579,.T.);
#579=SPHERICAL_SURFACE('',#580,0.2032);
#580=AXIS2_PLACEMENT_3D('',#581,#582,#583);
#581=CARTESIAN_POINT('',(-1.125,-2.625,0.203));
#582=DIRECTION('',(0.,0.,-1.));
#583=DIRECTION('',(-1.,0.,0.));
#584=MANIFOLD_SOLID_BREP($,#585);
#585=CLOSED_SHELL('',(#587));
#586=STYLED_ITEM('color',(#34),#587);
#587=ADVANCED_FACE('',(),#588,.T.);
#588=SPHERICAL_SURFACE('',#589,0.2032);
#589=AXIS2_PLACEMENT_3D('',#590,#591,#592);
#590=CARTESIAN_POINT('',(-0.375,-2.625,0.203));
#591=DIRECTION('',(0.,0.,-1.));
#592=DIRECTION('',(-1.,0.,0.));
#593=MANIFOLD_SOLID_BREP($,#594);
#594=CLOSED_SHELL('',(#596));
#595=STYLED_ITEM('color',(#34),#596);
#596=ADVANCED_FACE('',(),#597,.T.);
#597=SPHERICAL_SURFACE('',#598,0.2032);
#598=AXIS2_PLACEMENT_3D('',#599,#600,#601);
#599=CARTESIAN_POINT('',(0.375,-2.625,0.203));
#600=DIRECTION('',(0.,0.,-1.));
#601=DIRECTION('',(-1.,0.,0.));
#602=MANIFOLD_SOLID_BREP($,#603);
#603=CLOSED_SHELL('',(#605));
#604=STYLED_ITEM('color',(#34),#605);
#605=ADVANCED_FACE('',(),#606,.T.);
#606=SPHERICAL_SURFACE('',#607,0.2032);
#607=AXIS2_PLACEMENT_3D('',#608,#609,#610);
#608=CARTESIAN_POINT('',(1.125,-2.625,0.203));
#609=DIRECTION('',(0.,0.,-1.));
#610=DIRECTION('',(-1.,0.,0.));
#611=MANIFOLD_SOLID_BREP($,#612);
#612=CLOSED_SHELL('',(#614));
#613=STYLED_ITEM('color',(#34),#614);
#614=ADVANCED_FACE('',(),#615,.T.);
#615=SPHERICAL_SURFACE('',#616,0.2032);
#616=AXIS2_PLACEMENT_3D('',#617,#618,#619);
#617=CARTESIAN_POINT('',(1.875,-2.625,0.203));
#618=DIRECTION('',(0.,0.,-1.));
#619=DIRECTION('',(-1.,0.,0.));
#621=MANIFOLD_SOLID_BREP($,#622);
#622=CLOSED_SHELL('',(#623,#624,#625));
#623=ADVANCED_FACE($,(#629,#628),#646,.T.);
#624=ADVANCED_FACE($,(#630),#626,.F.);
#625=ADVANCED_FACE($,(#631),#627,.T.);
#626=PLANE($,#651);
#627=PLANE($,#652);
#628=FACE_BOUND($,#633,.T.);
#629=FACE_OUTER_BOUND($,#632,.T.);
#630=FACE_OUTER_BOUND($,#634,.T.);
#631=FACE_OUTER_BOUND($,#635,.T.);
#632=EDGE_LOOP($,(#642));
#633=EDGE_LOOP($,(#643));
#634=EDGE_LOOP($,(#644));
#635=EDGE_LOOP($,(#645));
#636=CIRCLE($,#649,0.1524);
#637=CIRCLE($,#650,0.1524);
#638=VERTEX_POINT('',#667);
#639=VERTEX_POINT('',#669);
#640=EDGE_CURVE($,#638,#638,#636,.T.);
#641=EDGE_CURVE($,#639,#639,#637,.T.);
#642=ORIENTED_EDGE($,*,*,#640,.F.);
#643=ORIENTED_EDGE($,*,*,#641,.F.);
#644=ORIENTED_EDGE($,*,*,#641,.T.);
#645=ORIENTED_EDGE($,*,*,#640,.T.);
#646=CYLINDRICAL_SURFACE($,#648,0.1524);
#647=AXIS2_PLACEMENT_3D('placement',#665,#653,#654);
#648=AXIS2_PLACEMENT_3D($,#666,#655,#656);
#649=AXIS2_PLACEMENT_3D($,#668,#657,#658);
#650=AXIS2_PLACEMENT_3D($,#670,#659,#660);
#651=AXIS2_PLACEMENT_3D($,#671,#661,#662);
#652=AXIS2_PLACEMENT_3D($,#672,#663,#664);
#653=DIRECTION('axis',(0.,1.,0.));
#654=DIRECTION('refdir',(1.,0.,0.));
#655=DIRECTION('',(0.,0.,1.));
#656=DIRECTION('',(1.,0.,0.));
#657=DIRECTION('',(0.,0.,1.));
#658=DIRECTION('',(1.,0.,0.));
#659=DIRECTION('',(0.,0.,-1.));
#660=DIRECTION('',(1.,0.,0.));
#661=DIRECTION('',(0.,0.,1.));
#662=DIRECTION('',(0.,1.,0.));
#663=DIRECTION('',(0.,0.,1.));
#664=DIRECTION('',(0.,1.,0.));
#665=CARTESIAN_POINT('',(0.,0.,0.));
#666=CARTESIAN_POINT('',(-2.438,3.442,1.194));
#667=CARTESIAN_POINT('',(-2.591,3.442,1.196));
#668=CARTESIAN_POINT('',(-2.438,3.442,1.196));
#669=CARTESIAN_POINT('',(-2.591,3.442,1.194));
#670=CARTESIAN_POINT('',(-2.438,3.442,1.194));
#671=CARTESIAN_POINT('',(-2.438,3.442,1.194));
#672=CARTESIAN_POINT('',(-2.438,3.442,1.196));
#673=STYLED_ITEM('color',(#52),#623);
#674=STYLED_ITEM('color',(#52),#624);
#675=STYLED_ITEM('color',(#52),#625);
#677=MANIFOLD_SOLID_BREP($,#678);
#678=CLOSED_SHELL('',(#680,#729,#778,#827,#876,#925));
#679=STYLED_ITEM('',(#43),#680);
#680=ADVANCED_FACE('',(#686),#681,.T.);
#681=PLANE('',#682);
#682=AXIS2_PLACEMENT_3D('',#683,#684,#685);
#683=CARTESIAN_POINT('',(-3.048,-4.051,0.405));
#684=DIRECTION('',(0.0,-1.0,0.0));
#685=DIRECTION('',(0.,0.,1.));
#686=FACE_OUTER_BOUND('',#687,.T.);
#687=EDGE_LOOP('',(#688,#698,#708,#718));
#691=CARTESIAN_POINT('',(3.048,-4.051,0.405));
#690=VERTEX_POINT('',#691);
#693=CARTESIAN_POINT('',(-3.048,-4.051,0.405));
#692=VERTEX_POINT('',#693);
#689=EDGE_CURVE('',#690,#692,#694,.T.);
#694=LINE('',#691,#696);
#696=VECTOR('',#697,6.096);
#697=DIRECTION('',(-1.0,0.0,0.0));
#688=ORIENTED_EDGE('',*,*,#689,.F.);
#701=CARTESIAN_POINT('',(3.048,-4.051,1.194));
#700=VERTEX_POINT('',#701);
#699=EDGE_CURVE('',#700,#690,#704,.T.);
#704=LINE('',#701,#706);
#706=VECTOR('',#707,0.7884000000066);
#707=DIRECTION('',(0.0,0.0,-1.0));
#698=ORIENTED_EDGE('',*,*,#699,.F.);
#711=CARTESIAN_POINT('',(-3.048,-4.051,1.194));
#710=VERTEX_POINT('',#711);
#709=EDGE_CURVE('',#710,#700,#714,.T.);
#714=LINE('',#711,#716);
#716=VECTOR('',#717,6.096);
#717=DIRECTION('',(1.0,0.0,0.0));
#708=ORIENTED_EDGE('',*,*,#709,.F.);
#719=EDGE_CURVE('',#692,#710,#724,.T.);
#724=LINE('',#693,#726);
#726=VECTOR('',#727,0.7884000000066);
#727=DIRECTION('',(0.0,0.0,1.0));
#718=ORIENTED_EDGE('',*,*,#719,.F.);
#728=STYLED_ITEM('',(#43),#729);
#729=ADVANCED_FACE('',(#735),#730,.T.);
#730=PLANE('',#731);
#731=AXIS2_PLACEMENT_3D('',#732,#733,#734);
#732=CARTESIAN_POINT('',(3.048,-4.051,0.405));
#733=DIRECTION('',(1.0,0.0,0.0));
#734=DIRECTION('',(0.,0.,1.));
#735=FACE_OUTER_BOUND('',#736,.T.);
#736=EDGE_LOOP('',(#737,#747,#757,#767));
#740=CARTESIAN_POINT('',(3.048,4.051,0.405));
#739=VERTEX_POINT('',#740);
#738=EDGE_CURVE('',#739,#690,#743,.T.);
#743=LINE('',#740,#745);
#745=VECTOR('',#746,8.1026);
#746=DIRECTION('',(0.0,-1.0,0.0));
#737=ORIENTED_EDGE('',*,*,#738,.F.);
#750=CARTESIAN_POINT('',(3.048,4.051,1.194));
#749=VERTEX_POINT('',#750);
#748=EDGE_CURVE('',#749,#739,#753,.T.);
#753=LINE('',#750,#755);
#755=VECTOR('',#756,0.7884000000066);
#756=DIRECTION('',(0.0,0.0,-1.0));
#747=ORIENTED_EDGE('',*,*,#748,.F.);
#758=EDGE_CURVE('',#700,#749,#763,.T.);
#763=LINE('',#701,#765);
#765=VECTOR('',#766,8.1026);
#766=DIRECTION('',(0.0,1.0,0.0));
#757=ORIENTED_EDGE('',*,*,#758,.F.);
#767=ORIENTED_EDGE('',*,*,#699,.T.);
#777=STYLED_ITEM('',(#43),#778);
#778=ADVANCED_FACE('',(#784),#779,.T.);
#779=PLANE('',#780);
#780=AXIS2_PLACEMENT_3D('',#781,#782,#783);
#781=CARTESIAN_POINT('',(3.048,4.051,0.405));
#782=DIRECTION('',(0.0,1.0,0.0));
#783=DIRECTION('',(0.,0.,1.));
#784=FACE_OUTER_BOUND('',#785,.T.);
#785=EDGE_LOOP('',(#786,#796,#806,#816));
#789=CARTESIAN_POINT('',(-3.048,4.051,0.405));
#788=VERTEX_POINT('',#789);
#787=EDGE_CURVE('',#788,#739,#792,.T.);
#792=LINE('',#789,#794);
#794=VECTOR('',#795,6.096);
#795=DIRECTION('',(1.0,0.0,0.0));
#786=ORIENTED_EDGE('',*,*,#787,.F.);
#799=CARTESIAN_POINT('',(-3.048,4.051,1.194));
#798=VERTEX_POINT('',#799);
#797=EDGE_CURVE('',#798,#788,#802,.T.);
#802=LINE('',#799,#804);
#804=VECTOR('',#805,0.7884000000066);
#805=DIRECTION('',(0.0,0.0,-1.0));
#796=ORIENTED_EDGE('',*,*,#797,.F.);
#807=EDGE_CURVE('',#749,#798,#812,.T.);
#812=LINE('',#750,#814);
#814=VECTOR('',#815,6.096);
#815=DIRECTION('',(-1.0,0.0,0.0));
#806=ORIENTED_EDGE('',*,*,#807,.F.);
#816=ORIENTED_EDGE('',*,*,#748,.T.);
#826=STYLED_ITEM('',(#43),#827);
#827=ADVANCED_FACE('',(#833),#828,.T.);
#828=PLANE('',#829);
#829=AXIS2_PLACEMENT_3D('',#830,#831,#832);
#830=CARTESIAN_POINT('',(-3.048,4.051,0.405));
#831=DIRECTION('',(-1.0,0.0,0.0));
#832=DIRECTION('',(0.,0.,1.));
#833=FACE_OUTER_BOUND('',#834,.T.);
#834=EDGE_LOOP('',(#835,#845,#855,#865));
#836=EDGE_CURVE('',#692,#788,#841,.T.);
#841=LINE('',#693,#843);
#843=VECTOR('',#844,8.1026);
#844=DIRECTION('',(0.0,1.0,0.0));
#835=ORIENTED_EDGE('',*,*,#836,.F.);
#845=ORIENTED_EDGE('',*,*,#719,.T.);
#856=EDGE_CURVE('',#798,#710,#861,.T.);
#861=LINE('',#799,#863);
#863=VECTOR('',#864,8.1026);
#864=DIRECTION('',(0.0,-1.0,0.0));
#855=ORIENTED_EDGE('',*,*,#856,.F.);
#865=ORIENTED_EDGE('',*,*,#797,.T.);
#875=STYLED_ITEM('',(#43),#876);
#876=ADVANCED_FACE('',(#882),#877,.T.);
#877=PLANE('',#878);
#878=AXIS2_PLACEMENT_3D('',#879,#880,#881);
#879=CARTESIAN_POINT('',(-3.048,4.051,0.405));
#880=DIRECTION('',(0.0,0.0,-1.0));
#881=DIRECTION('',(0.,1.,0.));
#882=FACE_OUTER_BOUND('',#883,.T.);
#883=EDGE_LOOP('',(#884,#894,#904,#914));
#884=ORIENTED_EDGE('',*,*,#787,.T.);
#894=ORIENTED_EDGE('',*,*,#738,.T.);
#904=ORIENTED_EDGE('',*,*,#689,.T.);
#914=ORIENTED_EDGE('',*,*,#836,.T.);
#924=STYLED_ITEM('',(#43),#925);
#925=ADVANCED_FACE('',(#931),#926,.T.);
#926=PLANE('',#927);
#927=AXIS2_PLACEMENT_3D('',#928,#929,#930);
#928=CARTESIAN_POINT('',(-3.048,-4.051,1.194));
#929=DIRECTION('',(0.0,0.0,1.0));
#930=DIRECTION('',(0.,1.,0.));
#931=FACE_OUTER_BOUND('',#932,.T.);
#932=EDGE_LOOP('',(#933,#943,#953,#963));
#933=ORIENTED_EDGE('',*,*,#709,.T.);
#943=ORIENTED_EDGE('',*,*,#758,.T.);
#953=ORIENTED_EDGE('',*,*,#807,.T.);
#963=ORIENTED_EDGE('',*,*,#856,.T.);
ENDSEC;
END-ISO-10303-21;
